<?xml version="1.0" standalone="no"?>
<!DOCTYPE svg PUBLIC "-//W3C//DTD SVG 20010904//EN"
 "http://www.w3.org/TR/2001/REC-SVG-20010904/DTD/svg10.dtd">
<svg version="1.0" xmlns="http://www.w3.org/2000/svg"
 width="2000.000000pt" height="2000.000000pt" viewBox="0 0 2000.000000 2000.000000"
 preserveAspectRatio="xMidYMid meet">

<g transform="translate(0.000000,2000.000000) scale(0.100000,-0.100000)"
fill="#000000" stroke="none">
<path d="M7210 16098 c-39 -18 -75 -22 -295 -29 -137 -5 -261 -11 -275 -14
-14 -3 -115 -12 -225 -20 -110 -8 -227 -22 -260 -31 -112 -30 -239 -98 -352
-190 l-33 -26 -31 26 c-17 14 -39 26 -50 26 -15 0 -19 -7 -19 -39 0 -37 -2
-40 -32 -43 -39 -4 -49 -30 -22 -59 9 -10 15 -20 13 -22 -170 -109 -240 -202
-274 -362 -26 -123 -12 -297 32 -396 l20 -44 8 50 c24 157 103 241 210 221 53
-10 58 -22 54 -158 l-4 -121 50 -14 c70 -18 72 -17 79 25 7 44 39 96 77 125
15 10 53 22 85 26 128 16 165 70 198 294 24 160 51 183 216 181 181 -2 368
-63 543 -177 101 -66 96 -47 72 -262 -8 -71 -15 -136 -15 -143 0 -11 -16 -12
-74 -7 -68 7 -75 6 -85 -13 -22 -42 -15 -52 38 -52 27 0 62 -3 79 -6 27 -6 30
-9 22 -30 -14 -36 4 -29 39 15 76 95 111 230 93 356 l-10 70 31 24 c123 95
212 226 238 348 16 81 6 241 -21 328 -19 61 -66 167 -73 164 -1 0 -22 -10 -47
-21z"/>
<path d="M14049 15637 c-91 -34 -146 -93 -170 -182 -10 -35 -11 -36 -47 -28
-20 4 -80 8 -132 8 -117 -1 -181 -25 -240 -92 -57 -65 -83 -139 -84 -243 -1
-101 21 -155 91 -229 38 -40 41 -46 26 -55 -51 -28 -83 -96 -83 -176 0 -55 23
-101 73 -147 41 -38 42 -40 30 -73 -28 -83 -8 -174 50 -229 l26 -23 6 36 c8
38 7 40 -24 151 -11 39 -20 87 -20 108 l-1 37 43 0 c23 0 58 -4 76 -10 42 -12
45 -10 36 28 -6 30 -12 33 -135 54 -14 3 -14 15 -2 108 l14 105 86 1 c68 0 98
5 139 23 58 26 138 104 149 145 l6 26 38 -34 c20 -18 54 -39 75 -46 53 -18
189 -8 247 18 l46 20 6 -44 c16 -123 104 -190 215 -165 l41 9 0 -55 c0 -60 15
-95 55 -133 24 -22 26 -29 20 -75 -7 -55 -30 -160 -40 -187 -6 -16 0 -18 49
-18 l57 0 24 55 c14 30 30 75 36 100 10 39 15 45 44 51 110 20 185 -66 185
-210 0 -140 -83 -276 -167 -276 -17 0 -23 -6 -23 -24 0 -46 -31 -201 -54 -270
-14 -39 -23 -73 -21 -75 10 -9 115 34 156 64 62 44 105 130 115 224 l6 68 53
12 c165 37 264 178 253 363 -4 66 -11 91 -41 150 -36 71 -37 72 -18 92 71 78
74 231 7 372 -56 118 -143 194 -222 194 l-29 0 0 102 c0 93 -3 108 -27 155
-99 187 -321 227 -513 92 l-59 -41 -15 23 c-29 46 -95 102 -150 127 -68 31
-203 41 -262 19z"/>
<path d="M6272 15189 c-40 -20 -43 -24 -36 -53 8 -40 6 -38 38 -26 83 31 208
-6 268 -81 17 -21 34 -39 38 -39 4 0 12 12 18 26 16 33 7 48 -66 115 -87 81
-175 100 -260 58z"/>
<path d="M6304 14986 c-57 -25 -50 -36 22 -36 83 0 144 -26 180 -79 l26 -36
-5 39 c-8 53 -32 85 -80 107 -49 22 -100 24 -143 5z"/>
<path d="M8724 14707 c-67 -105 -250 -396 -408 -644 -157 -249 -286 -456 -286
-460 1 -7 386 -252 1389 -884 179 -113 355 -224 391 -246 l64 -41 22 31 c74
110 748 1185 751 1198 17 62 -42 -21 -262 -369 -137 -219 -303 -481 -368 -584
l-118 -188 -25 16 c-13 9 -24 20 -24 25 0 5 173 282 384 616 l384 608 -61 39
c-34 21 -175 110 -312 196 l-251 157 -53 -7 c-62 -8 -68 -14 -142 -145 -78
-137 -95 -157 -132 -153 l-32 3 2 58 2 59 -31 -44 c-40 -57 -67 -78 -100 -78
-27 0 -28 1 -28 56 l0 57 -20 -26 c-23 -29 -71 -49 -90 -37 -10 6 -11 25 -7
74 l6 66 -28 -21 c-44 -32 -65 -23 -69 31 -2 32 9 84 39 180 42 132 45 136
104 196 l61 60 -312 197 c-171 108 -313 197 -315 197 -2 0 -59 -87 -125 -193z"/>
<path d="M6790 14760 c-11 -7 -7 -10 18 -10 25 0 42 -8 63 -31 29 -31 29 -31
29 -7 0 47 -67 76 -110 48z"/>
<path d="M3933 14717 c77 -442 97 -593 97 -729 0 -61 -2 -69 -17 -64 -10 3
-55 17 -101 31 -45 14 -87 23 -92 20 -6 -3 -10 -40 -10 -82 0 -120 38 -174
134 -188 68 -10 166 -37 161 -45 -3 -4 -27 -10 -55 -12 -115 -11 -248 -106
-305 -218 -62 -123 -127 -577 -142 -998 l-6 -182 -39 -11 c-32 -8 -43 -17 -55
-46 -45 -108 -28 -672 22 -750 8 -12 30 -27 49 -34 34 -12 34 -13 40 -88 37
-430 91 -723 158 -854 60 -120 221 -223 454 -292 l91 -28 12 -221 c7 -121 17
-261 22 -311 5 -49 13 -153 19 -230 24 -370 110 -681 224 -819 35 -43 393
-398 818 -814 255 -248 435 -409 488 -437 18 -9 30 -23 30 -36 0 -37 40 -99
73 -115 l33 -16 -27 -131 c-50 -245 -63 -354 -65 -552 -3 -153 -7 -203 -23
-257 -30 -103 -35 -182 -17 -268 20 -95 20 -184 0 -307 -9 -60 -13 -117 -9
-148 14 -102 55 -237 96 -316 103 -198 243 -278 469 -266 128 6 197 33 267
102 l52 53 63 -87 c119 -164 265 -284 450 -371 219 -103 368 -91 368 29 0 37
-2 38 -34 6 -64 -64 -258 -6 -459 138 -157 113 -219 176 -290 295 l-65 107 0
90 c0 50 -5 143 -12 209 -7 65 -10 142 -7 170 5 49 55 276 63 285 2 2 34 -10
71 -27 70 -32 171 -62 208 -62 34 0 68 45 146 190 84 158 120 213 155 237 87
61 140 111 290 275 253 275 317 340 459 466 422 376 613 590 733 820 98 188
132 354 102 504 -18 93 -42 131 -159 251 -398 410 -1029 823 -1826 1196 l-149
71 33 11 c31 11 33 14 28 46 -3 19 -53 123 -111 231 -124 233 -168 326 -197
423 -20 67 -21 86 -17 327 l5 257 86 230 c84 225 222 618 248 703 6 23 16 42
21 42 5 0 68 -52 140 -115 72 -63 136 -115 143 -115 15 0 175 109 256 176 82
67 204 193 247 256 42 61 102 187 102 213 0 13 -32 57 -76 106 -127 139 -280
336 -380 486 -53 79 -121 168 -154 200 l-60 58 0 65 c-1 204 -92 370 -243 440
-227 106 -447 68 -556 -96 -16 -25 -31 -50 -33 -56 -2 -6 -37 0 -88 16 -46 15
-89 25 -97 22 -7 -3 -13 -20 -13 -40 0 -44 -47 -85 -132 -117 -49 -18 -72 -21
-137 -16 -132 9 -440 126 -476 181 -16 25 -16 29 13 118 47 149 47 139 -3 173
l-44 30 1 155 c0 164 -14 256 -51 328 -39 75 -87 102 -185 102 -117 0 -239
-47 -367 -141 l-66 -49 -194 65 c-107 35 -257 83 -334 105 -77 23 -169 50
-204 61 l-64 18 6 -32z m1270 -357 c14 -16 28 -43 31 -60 3 -16 9 -44 12 -61
7 -36 12 -38 -99 40 -42 30 -77 58 -77 62 0 8 80 49 97 49 6 0 22 -13 36 -30z
m1472 -669 c35 -16 119 -91 102 -91 -3 0 -70 21 -148 47 -104 34 -137 49 -123
54 36 14 128 9 169 -10z m537 -5586 c277 -86 506 -156 510 -158 4 -1 -66 -103
-154 -227 -89 -124 -214 -301 -280 -394 -65 -92 -118 -164 -118 -158 0 6 12
54 27 109 20 73 27 122 27 193 1 86 -2 100 -28 147 -37 68 -170 243 -326 433
-170 205 -173 210 -167 210 3 0 232 -70 509 -155z"/>
<path d="M14122 14719 c-50 -9 -132 -52 -162 -84 -17 -18 -20 -30 -15 -54 l6
-30 49 33 c57 39 135 61 182 51 18 -4 52 -16 76 -27 42 -20 43 -20 57 -2 21
28 18 39 -17 69 -51 43 -106 57 -176 44z"/>
<path d="M14069 14523 c-15 -9 -35 -30 -45 -47 l-18 -31 24 18 c78 56 136 58
209 6 l44 -31 -19 34 c-36 61 -136 88 -195 51z"/>
<path d="M13606 14396 c-34 -33 -33 -53 0 -27 30 23 64 27 97 10 l22 -11 -20
20 c-34 35 -70 38 -99 8z"/>
<path d="M16538 13974 c-27 -8 -48 -20 -48 -27 0 -7 7 -50 15 -97 47 -275 68
-592 55 -850 -5 -101 -7 -187 -4 -189 2 -3 28 7 58 21 l53 26 6 144 c17 373
-5 770 -53 949 -12 43 -15 44 -82 23z"/>
<path d="M15255 13897 c-67 -22 -98 -43 -147 -95 -66 -71 -124 -193 -144 -305
l-6 -37 50 23 c38 18 65 42 110 99 131 164 212 157 302 -26 82 -165 198 -733
345 -1691 31 -198 58 -367 60 -375 2 -8 9 -289 15 -625 11 -579 10 -632 -11
-1033 -12 -232 -20 -425 -17 -428 14 -13 278 108 368 169 67 46 135 113 170
166 70 110 96 322 87 737 l-5 281 34 16 c49 24 58 68 51 252 -10 249 -54 503
-94 548 -9 9 -33 20 -54 23 -36 6 -37 8 -43 58 -23 171 -120 623 -172 796
l-17 54 -40 -44 c-22 -25 -59 -71 -82 -102 l-42 -57 -12 122 c-14 137 -63 470
-87 592 -115 580 -285 873 -517 890 -37 3 -78 0 -102 -8z"/>
<path d="M13410 13412 c-88 -43 -169 -169 -234 -366 -146 -435 -243 -1075
-231 -1521 7 -257 49 -518 109 -678 37 -97 101 -218 143 -267 l36 -42 13 24
c31 60 56 189 55 291 -6 767 3 1082 39 1482 32 343 66 563 107 688 61 185 119
219 218 126 l30 -28 88 29 c49 16 91 31 94 34 9 8 -79 104 -139 151 -86 68
-150 95 -228 95 -41 0 -78 -7 -100 -18z"/>
<path d="M14821 13383 c-51 -33 -53 -36 -47 -68 14 -72 -36 -130 -166 -196
-144 -73 -332 -79 -456 -15 -57 29 -113 86 -107 107 7 22 7 22 -51 8 -24 -6
-44 -17 -44 -24 0 -32 113 -153 180 -193 58 -34 138 -52 229 -52 240 1 441
108 501 268 23 61 38 186 24 194 -5 3 -33 -10 -63 -29z"/>
<path d="M11810 11790 l-45 -39 19 -33 c25 -42 525 -800 536 -811 6 -6 119 41
138 58 2 2 -51 81 -423 624 -88 129 -164 236 -170 238 -5 1 -30 -15 -55 -37z"/>
<path d="M13495 9293 c-259 -33 -508 -149 -665 -308 l-55 -56 1 -172 c1 -204
20 -292 101 -472 81 -179 115 -341 117 -555 1 -143 -8 -180 -43 -180 -10 0
-64 -13 -120 -29 l-102 -30 -57 27 c-52 25 -67 27 -177 27 -100 -1 -128 -4
-165 -21 -103 -47 -158 -123 -310 -422 -112 -222 -177 -328 -252 -412 -59 -66
-111 -168 -139 -270 -32 -118 -37 -364 -10 -495 26 -129 71 -219 129 -260 42
-28 49 -30 140 -30 86 0 103 3 150 28 28 15 52 30 52 32 0 3 -15 -2 -32 -11
-43 -23 -173 -30 -223 -14 -52 17 -109 71 -133 128 -26 61 -42 177 -41 305 0
165 12 244 49 327 41 93 150 277 232 390 34 47 74 108 90 135 l28 50 -6 -55
c-18 -166 89 -371 233 -447 95 -51 125 -55 425 -57 152 -1 280 -4 283 -8 10
-10 -160 -197 -214 -236 -25 -18 -125 -81 -221 -139 -208 -125 -272 -174 -393
-299 -206 -213 -307 -394 -307 -551 0 -102 55 -173 133 -173 l42 0 -33 20
c-68 42 -93 174 -53 280 37 96 147 229 315 378 158 141 302 250 424 322 292
171 353 217 420 309 l49 67 111 -15 110 -15 -57 -62 c-133 -142 -140 -342 -19
-524 58 -86 158 -180 204 -190 62 -15 232 -11 334 6 52 9 117 14 144 12 34 -3
167 -51 406 -145 592 -235 998 -376 1320 -460 154 -40 191 -46 310 -50 103 -4
151 -1 204 11 178 42 300 154 366 335 41 114 55 208 54 381 0 134 -4 170 -27
261 -50 203 -137 422 -411 1031 -262 585 -390 894 -491 1193 l-56 167 25 23
c14 13 26 21 26 18 0 -16 45 37 61 72 26 57 24 129 -6 192 -37 81 -89 130
-182 173 -246 114 -1338 394 -1771 454 -104 15 -244 19 -317 9z m2236 -636
c-10 -9 -11 -8 -5 6 3 10 9 15 12 12 3 -3 0 -11 -7 -18z m-3107 -1178 l39 -11
-180 -72 c-198 -80 -249 -110 -317 -188 l-47 -53 22 50 c103 235 190 302 374
289 39 -2 88 -9 109 -15z m1838 -184 c137 -307 379 -661 625 -916 60 -62 99
-109 88 -106 -36 11 -347 65 -500 87 -83 12 -215 24 -295 27 -131 4 -164 10
-345 55 -110 28 -201 51 -203 53 -2 2 38 25 88 51 164 87 291 205 353 329 46
94 82 255 92 420 3 55 8 120 11 145 l6 45 20 -50 c11 -27 38 -90 60 -140z"/>
<path d="M5883 5164 c-4 -21 -7 -86 -7 -144 1 -105 1 -105 102 -415 188 -575
274 -795 367 -935 106 -159 256 -240 447 -240 173 0 291 94 314 250 l6 45 -27
-53 c-30 -59 -71 -94 -133 -116 -149 -53 -386 -2 -471 101 -66 80 -146 255
-316 692 -130 336 -174 467 -230 685 -41 160 -44 168 -52 130z"/>
<path d="M10560 1535 c-10 -12 -10 -19 -2 -27 22 -22 12 -37 -29 -48 -43 -12
-50 -37 -8 -32 13 1 55 6 93 10 80 8 101 29 34 34 -42 3 -43 4 -43 38 0 39
-23 52 -45 25z"/>
<path d="M10776 1412 c-3 -5 11 -24 31 -43 19 -19 43 -46 52 -61 12 -18 21
-24 31 -18 11 7 11 13 -3 34 -22 33 -21 43 3 49 24 6 27 35 4 44 -11 4 -23 -2
-33 -16 l-17 -22 -19 20 c-19 22 -40 27 -49 13z"/>
<path d="M11134 1396 c-21 -17 -29 -35 -33 -72 -5 -44 -9 -49 -33 -52 -25 -3
-28 -8 -28 -38 0 -31 2 -34 30 -34 l30 0 0 -105 0 -105 35 0 35 0 0 105 0 105
45 0 c45 0 45 0 45 34 0 34 -1 35 -42 38 -41 3 -43 5 -41 32 3 36 19 48 56 42
25 -5 27 -3 27 28 0 38 -12 46 -65 46 -21 0 -44 -9 -61 -24z"/>
<path d="M12440 1400 c-23 -23 -24 -33 -10 -61 12 -22 59 -26 78 -7 19 19 15
66 -7 78 -28 14 -38 13 -61 -10z"/>
<path d="M10512 1384 c-56 -28 -92 -67 -117 -127 -18 -45 -20 -121 -2 -135 7
-6 45 -16 85 -22 121 -19 307 15 373 69 21 17 21 18 6 72 -42 144 -207 212
-345 143z m73 -109 c28 -27 32 -61 10 -92 -49 -70 -160 0 -120 77 24 47 72 54
110 15z m173 9 c26 -18 28 -50 5 -76 -38 -43 -105 0 -84 55 8 22 18 29 51 36
3 0 16 -6 28 -15z"/>
<path d="M12560 1200 l0 -210 40 0 40 0 0 52 0 52 53 -52 c49 -49 56 -52 102
-52 l49 0 -40 43 c-21 23 -52 56 -67 73 l-28 31 68 66 68 67 -49 0 c-43 0 -53
-5 -100 -46 l-51 -47 -3 117 -3 116 -39 0 -40 0 0 -210z"/>
<path d="M7380 1310 c0 -38 -3 -70 -7 -70 -3 0 -14 7 -23 15 -27 25 -83 29
-122 11 -49 -23 -68 -62 -68 -136 0 -73 19 -113 66 -135 43 -20 72 -19 117 5
31 17 37 17 37 5 0 -8 9 -15 20 -15 19 0 20 7 20 195 0 188 -1 195 -20 195
-18 0 -20 -7 -20 -70z m-40 -87 c36 -24 40 -32 40 -90 0 -66 -6 -80 -42 -99
-39 -20 -92 -11 -113 19 -68 97 24 233 115 170z"/>
<path d="M9330 1310 l0 -70 -32 20 c-65 39 -137 16 -169 -53 -62 -138 52 -278
169 -207 26 16 32 17 32 5 0 -9 10 -15 25 -15 l25 0 0 195 0 195 -25 0 c-24 0
-25 -2 -25 -70z m-19 -96 c15 -14 19 -31 19 -84 0 -76 -14 -97 -72 -106 -27
-5 -41 -1 -64 19 -26 23 -29 31 -29 87 0 56 3 64 29 87 23 20 37 24 64 19 19
-3 43 -13 53 -22z"/>
<path d="M9590 1185 c0 -188 1 -195 20 -195 11 0 20 6 20 14 0 11 8 10 38 -6
51 -27 106 -19 146 21 26 26 31 39 34 94 8 130 -77 201 -178 148 l-40 -21 0
70 c0 63 -2 70 -20 70 -19 0 -20 -7 -20 -195z m182 27 c27 -25 32 -36 32 -81
1 -47 -2 -56 -32 -82 -38 -34 -65 -36 -109 -9 -32 19 -33 21 -33 90 0 69 1 71
33 90 44 27 71 25 109 -8z"/>
<path d="M10382 1356 c-20 -27 -42 -34 -42 -15 0 6 -10 9 -22 7 -30 -4 -29
-30 0 -43 18 -8 22 -15 17 -35 -11 -42 -11 -44 8 -48 11 -2 17 3 17 14 0 10
14 42 31 72 33 60 27 94 -9 48z"/>
<path d="M8064 1355 c-8 -21 2 -45 19 -45 20 0 40 27 33 45 -7 19 -45 20 -52
0z"/>
<path d="M7551 1262 c-97 -52 -95 -219 3 -266 19 -9 48 -16 65 -16 41 0 111
29 111 45 0 22 -16 26 -46 10 -16 -8 -43 -15 -61 -15 -40 0 -93 43 -93 76 0
24 0 24 110 24 l110 0 0 28 c0 42 -33 95 -71 114 -44 23 -86 23 -128 0z m123
-44 c13 -13 27 -33 31 -45 6 -23 5 -23 -89 -23 l-95 0 11 30 c21 61 95 80 142
38z"/>
<path d="M7840 1268 c-34 -18 -55 -58 -46 -91 7 -29 33 -45 115 -69 56 -17 72
-39 47 -67 -24 -27 -80 -27 -123 -2 -27 17 -32 18 -37 5 -10 -27 -7 -32 39
-50 87 -33 176 4 175 74 -1 42 -22 61 -96 85 -71 23 -88 43 -64 72 16 20 80
19 108 -1 23 -16 42 -12 42 9 0 34 -115 59 -160 35z"/>
<path d="M8245 1270 c-46 -18 -69 -58 -73 -124 -5 -71 12 -115 54 -142 35 -24
99 -21 135 5 l29 22 0 -31 c0 -22 -10 -41 -30 -62 -28 -27 -36 -30 -76 -25
-25 2 -53 12 -62 20 -16 15 -19 15 -30 -3 -10 -17 -8 -22 21 -37 72 -38 186
-14 208 44 5 14 9 94 9 179 0 147 -1 154 -20 154 -11 0 -20 -6 -20 -14 0 -11
-8 -10 -37 5 -39 20 -75 23 -108 9z m113 -50 c31 -19 32 -22 32 -83 0 -55 -3
-67 -25 -87 -29 -28 -83 -32 -111 -9 -51 42 -53 132 -2 174 36 30 62 31 106 5z"/>
<path d="M8587 1260 c-31 -17 -37 -17 -37 -5 0 8 -9 15 -20 15 -19 0 -20 -7
-20 -140 0 -133 1 -140 20 -140 19 0 20 7 20 105 l0 105 33 20 c38 24 66 25
93 6 16 -12 19 -29 22 -125 3 -101 5 -111 23 -111 18 0 19 9 19 120 0 115 -1
122 -25 145 -30 31 -76 33 -128 5z"/>
<path d="M8871 1262 c-66 -36 -92 -138 -53 -211 22 -40 73 -71 119 -71 42 0
113 28 113 45 0 22 -16 26 -46 10 -16 -8 -43 -15 -61 -15 -40 0 -93 43 -93 76
0 24 0 24 110 24 l110 0 0 33 c0 96 -111 156 -199 109z m123 -44 c13 -13 27
-33 31 -45 6 -23 5 -23 -88 -23 -90 0 -95 1 -90 20 17 64 99 90 147 48z"/>
<path d="M11392 1264 c-12 -8 -22 -10 -22 -5 0 6 -18 11 -40 11 l-40 0 0 -140
0 -140 40 0 40 0 0 86 c0 47 5 94 10 104 6 11 26 22 45 26 35 6 71 46 60 64
-10 15 -68 12 -93 -6z"/>
<path d="M11543 1260 c-43 -26 -67 -74 -67 -136 0 -59 19 -95 67 -124 39 -24
113 -26 162 -6 39 17 44 35 17 60 -17 15 -22 15 -55 1 -20 -8 -44 -12 -54 -8
-23 8 -53 33 -53 45 0 4 45 8 100 8 l100 0 0 32 c0 50 -36 114 -74 132 -46 22
-104 20 -143 -4z m125 -77 l14 -23 -61 0 c-63 0 -72 7 -45 35 23 22 73 16 92
-12z"/>
<path d="M11865 1270 c-27 -11 -61 -49 -74 -83 -27 -72 2 -162 63 -191 44 -21
118 -21 159 0 44 22 43 21 18 48 -20 21 -25 22 -58 11 -44 -15 -81 -7 -101 23
l-14 22 101 0 101 0 0 43 c0 51 -28 100 -69 122 -32 16 -93 19 -126 5z m109
-82 c15 -25 5 -29 -58 -26 l-57 3 17 23 c12 18 24 22 51 20 20 -2 41 -10 47
-20z"/>
<path d="M12200 1263 c-17 -12 -25 -13 -28 -5 -2 7 -19 12 -38 12 l-34 0 0
-200 0 -200 40 0 40 0 0 66 c0 59 2 65 18 58 9 -4 38 -9 63 -12 38 -3 50 1 79
24 59 50 76 127 42 194 -35 70 -127 102 -182 63z m89 -70 c12 -10 24 -35 27
-55 5 -30 2 -41 -19 -62 -65 -65 -155 10 -113 93 22 42 69 53 105 24z"/>
<path d="M8070 1130 c0 -133 1 -140 20 -140 19 0 20 7 20 140 0 133 -1 140
-20 140 -19 0 -20 -7 -20 -140z"/>
<path d="M9870 1266 c0 -2 25 -63 55 -136 30 -73 55 -140 55 -150 0 -28 -40
-72 -61 -67 -11 3 -19 -2 -22 -14 -7 -26 32 -35 70 -15 29 14 53 65 180 374 3
8 -4 12 -19 12 -21 0 -29 -10 -53 -67 -15 -38 -37 -88 -47 -113 l-20 -45 -45
113 c-40 99 -48 112 -69 112 -13 0 -24 -2 -24 -4z"/>
<path d="M12440 1130 l0 -140 35 0 35 0 0 140 0 140 -35 0 -35 0 0 -140z"/>
<path d="M10846 1131 c-11 -17 -127 -51 -212 -61 -54 -7 -105 -7 -150 -1 -37
6 -70 8 -73 5 -11 -10 88 -91 126 -102 90 -27 183 -10 244 45 38 35 86 110 76
120 -3 2 -8 0 -11 -6z"/>
</g>
</svg>
